<?xml version="1.0" encoding="utf-8"?>
<!-- Generator: Adobe Illustrator 28.1.0, SVG Export Plug-In . SVG Version: 6.00 Build 0)  -->
<svg version="1.1" id="Layer_1" xmlns="http://www.w3.org/2000/svg" xmlns:xlink="http://www.w3.org/1999/xlink" x="0px" y="0px"
	 viewBox="0 0 1000 372.2" style="enable-background:new 0 0 1000 372.2;" xml:space="preserve">
<style type="text/css">
	.st0{fill:#66CC66;}
	.st1{fill:#EBECED;}
	.st2{fill:#FFFFFF;}
	.st3{fill:#333333;}
	.st4{fill:#396654;}
	.st5{fill:#9FA09F;}
	.st6{opacity:0.67;fill:#66CC66;}
</style>
<g>
	<path class="st3" d="M558.3,122.8c-24.5,0-40.4,13.6-40.4,37.4v47.6c0,23.8,14.8,34.1,39.2,34.1h34.9l4.5-19.4h-38.5
		c-12,0-18.5-4.8-18.5-18.9v-6H599v-42.3C599,135.9,584.9,122.8,558.3,122.8z M577.3,178.7h-37.7v-14.4c0-14.3,6.8-22.4,18.8-22.4
		s18.9,6.9,18.9,16.8V178.7z"/>
	<path class="st3" d="M762.1,80.4h-40.4v161.5h21.7v-64.4h18.7c24.5,0,39.2-10.4,39.2-34.1v-28.8C801.3,90.8,786.5,80.4,762.1,80.4z
		 M779.6,139.3c0,14.1-6.5,18.9-18.5,18.9h-17.8V99.6h17.8c12,0,18.5,4.8,18.5,19.1V139.3z"/>
	<path class="st3" d="M859,78.6h-1.8c-24.5,0-39.2,10.8-39.2,34.1v96.9c0,24.5,14.8,34.1,39.2,34.1h1.8c24.5,0,39.2-9.9,39.2-34.1
		V160h-41.1v18.5h19.4v27c0,14.3-6.5,19.1-18.5,19.1c-12,0-18.5-4.8-18.5-19.1v-88.6c0-14.3,6.5-19.1,18.5-19.1
		c12,0,18.5,4.8,18.5,19.1v18.2h21.7v-22.4C898.2,89.4,883.5,78.6,859,78.6z"/>
	<path class="st3" d="M960.8,80.4h-40.4v161.5h21.7v-64.4h18.7c24.5,0,39.2-10.4,39.2-34.1v-28.8C1000,90.8,985.2,80.4,960.8,80.4z
		 M978.3,139.3c0,14.1-6.5,18.9-18.5,18.9h-17.8V99.6h17.8c12,0,18.5,4.8,18.5,19.1V139.3z"/>
	<path class="st3" d="M363.1,78.6h-6.5c-24.5,0-39.2,10.1-39.2,34.1v96.9c0,23.8,14.8,34.1,39.2,34.1h6.5
		c24.5,0,39.2-10.4,39.2-34.1v-96.9C402.3,89,387.6,78.6,363.1,78.6z M380.6,205.5c0,14.3-8.8,19.1-20.8,19.1
		c-12,0-20.8-4.8-20.8-19.1v-88.6c0-14.3,8.8-19.1,20.8-19.1c12,0,20.8,4.8,20.8,19.1V205.5z"/>
	<path class="st3" d="M666.3,122.5c-5.2,0-12,1.2-18.6,1.7l-6.6,5.7l-6.6-5.7h0h-15.1v117.6h21.7v-98.5c0,0,8-1.5,15.4-1.5
		c11.8,0,18.5,6.9,18.5,21.2v78.8h21.7v-83.5C696.6,132.6,684.6,122.5,666.3,122.5z"/>
	<path class="st3" d="M468.6,122.5c-4,0-11.4,0.8-17.7,1.7l-6.6,5.7l-6.6-5.7h0h-15.1v162.9h21.7v-54.9l11.3,9.7h5.1
		c24.5,0,39.2-10.4,39.2-34.1v-54.4C499.9,132.5,484.2,122.5,468.6,122.5z M478.2,203.6c0,14.1-6.5,18.9-18.5,18.9h-15.4v-79.1h15.4
		c12,0,18.5,5.4,18.5,19.7V203.6z"/>
</g>
<path class="st0" d="M177,0H41.6L0,37.3l13.2,252.2l96.1,82.7l96.1-82.7l6-113.6h-43.1v-20.1c0-21.9-12-41-29.7-51.1
	c5.5-6.6,8.8-15.1,8.8-24.3c0-21-17.1-38.2-38.2-38.2S71.1,59.3,71.1,80.4c0,9.3,3.3,17.8,8.8,24.4c-17.7,10.2-29.6,29.3-29.6,51.1
	v41.8h138.3l-4.2,81.5l-64.3,55.3v-44.1c15.8-4.7,27.3-19.3,27.3-36.6c0-21-17.1-38.2-38.2-38.2s-38.2,17.1-38.2,38.2
	c0,17.3,11.6,31.9,27.3,36.6v43.9l-64.2-55.2l-12-230.3l29.5-25.1h115.2l29.5,25.1l-5.5,105.5h21.6l6.1-117L177,0z M109.3,63.9
	c9.1,0,16.5,7.4,16.5,16.5c0,9.1-7.4,16.5-16.5,16.5c-9.1,0-16.5-7.4-16.5-16.5C92.8,71.3,100.2,63.9,109.3,63.9z M146.6,175.9H72
	v-18c0-20.6,16.7-37.3,37.3-37.3c20.6,0,37.3,16.7,37.3,37.3V175.9z M92.8,253.8c0-9.1,7.4-16.5,16.5-16.5c9.1,0,16.5,7.4,16.5,16.5
	c0,9.1-7.4,16.5-16.5,16.5C100.2,270.3,92.8,262.9,92.8,253.8z"/>
</svg>
