<?xml version="1.0" standalone="no"?>
<!DOCTYPE svg PUBLIC "-//W3C//DTD SVG 20010904//EN"
 "http://www.w3.org/TR/2001/REC-SVG-20010904/DTD/svg10.dtd">
<svg version="1.0" xmlns="http://www.w3.org/2000/svg"
 width="860.000000pt" height="860.000000pt" viewBox="0 0 860.000000 860.000000"
 preserveAspectRatio="xMidYMid meet">
<metadata>
Created by potrace 1.14, written by Peter Selinger 2001-2017
</metadata>
<g transform="translate(0.000000,860.000000) scale(0.100000,-0.100000)"
fill="#000000" stroke="none">
<path d="M2360 8029 c-239 -214 -447 -402 -462 -417 l-27 -27 147 -2801 147
-2801 30 -26 c17 -14 496 -426 1065 -916 569 -490 1038 -891 1041 -891 3 0
484 412 1070 916 875 753 1064 920 1066 942 2 15 30 547 63 1182 32 635 62
1192 66 1238 l6 82 -480 0 -480 0 -5 323 c-5 336 -8 360 -57 522 -81 262 -280
526 -517 686 -40 27 -73 52 -73 54 0 3 16 27 35 54 48 66 109 201 130 286 22
86 25 283 6 370 -69 317 -312 569 -626 651 -95 25 -311 25 -410 1 -161 -40
-351 -161 -452 -289 -234 -293 -254 -694 -51 -1003 29 -44 47 -80 41 -82 -38
-13 -173 -121 -259 -207 -183 -183 -298 -392 -357 -651 -19 -84 -21 -129 -24
-642 l-4 -553 1535 0 1536 0 0 -29 c0 -16 -20 -415 -45 -888 -25 -472 -45
-866 -45 -875 0 -10 -203 -192 -502 -450 -277 -238 -599 -515 -715 -616 l-213
-183 0 488 0 488 53 19 c246 86 458 318 528 581 26 95 31 294 10 390 -41 192
-172 393 -331 510 -71 52 -198 113 -287 136 -111 30 -315 30 -428 0 -291 -78
-526 -313 -606 -606 -18 -65 -22 -107 -22 -220 0 -123 3 -151 27 -228 30 -100
61 -166 119 -251 87 -129 239 -250 383 -303 l74 -28 0 -483 c0 -266 -4 -482
-8 -480 -5 2 -326 277 -715 612 -670 576 -707 610 -707 641 0 18 -59 1155
-130 2526 -72 1372 -129 2508 -128 2526 3 29 38 62 327 307 l324 276 1278 0
1278 0 325 -277 326 -277 0 -51 c0 -58 -106 -2134 -114 -2232 l-5 -63 239 0
240 0 4 23 c3 12 34 597 71 1299 l66 1277 -42 38 c-23 21 -231 208 -463 415
l-421 378 -1505 0 -1505 -1 -435 -390z m2072 -1059 c74 -27 159 -104 193 -174
54 -110 51 -228 -7 -339 -102 -191 -357 -247 -537 -117 -168 122 -194 374 -54
530 108 120 256 157 405 100z m3 -1245 c282 -49 526 -244 631 -503 53 -132 57
-161 62 -444 l4 -268 -831 0 -831 0 0 224 c0 155 5 250 15 311 60 345 330 617
673 679 103 19 172 19 277 1z m-15 -2602 c202 -68 302 -308 208 -502 -12 -25
-47 -71 -78 -102 -72 -73 -144 -102 -250 -102 -108 0 -178 29 -256 107 -78 79
-107 148 -107 256 0 106 30 179 102 250 109 108 239 140 381 93z"/>
</g>
</svg>
